<?xml version="1.0" encoding="utf-8"?>
<!-- Generator: Adobe Illustrator 24.0.3, SVG Export Plug-In . SVG Version: 6.00 Build 0)  -->
<svg version="1.1" id="Layer_1" xmlns="http://www.w3.org/2000/svg" xmlns:xlink="http://www.w3.org/1999/xlink" x="0px" y="0px"
	 viewBox="0 0 20 20" style="enable-background:new 0 0 20 20;" xml:space="preserve">
<style type="text/css">
	.st0{fill:#FFFFFF;}
</style>
<g>
	<path class="st0" d="M0.01,9.99C0.02,4.46,4.5-0.02,10.02,0c5.52,0.02,9.99,4.5,9.97,10.01C19.98,15.54,15.49,20.02,9.98,20
		C4.46,19.98-0.01,15.5,0.01,9.99z M3.39,13.98c0.06,0,0.1,0.01,0.14,0.01c1.42,0,2.83,0,4.25,0c0.19,0,0.39-0.02,0.58-0.06
		c0.98-0.2,1.71-0.7,1.93-1.73c0.08-0.36,0.09-0.75,0.05-1.11c-0.11-0.99-0.52-1.46-1.37-1.64c0.09-0.04,0.15-0.07,0.22-0.09
		c0.33-0.13,0.57-0.35,0.72-0.67c0.43-0.89,0.06-2.16-0.78-2.68C8.68,5.74,8.19,5.65,7.68,5.66c-1.36,0-2.73,0-4.09,0
		c-0.07,0-0.13,0.01-0.21,0.01C3.39,8.44,3.39,11.2,3.39,13.98z M16.86,11.4c-0.04-0.48-0.04-0.92-0.12-1.35
		c-0.21-1.09-0.79-1.89-1.92-2.16c-0.37-0.09-0.77-0.12-1.16-0.1c-1.05,0.04-1.92,0.46-2.46,1.4c-0.52,0.92-0.65,1.9-0.36,2.93
		c0.3,1.03,0.98,1.68,2.02,1.93c0.63,0.15,1.28,0.16,1.92,0.05c0.46-0.08,0.9-0.24,1.27-0.54c0.5-0.41,0.7-0.95,0.7-1.59
		c-0.49,0-0.97,0-1.44,0c-0.14,0.45-0.26,0.62-0.57,0.74c-0.49,0.19-0.99,0.21-1.49,0.01c-0.51-0.21-0.84-0.79-0.74-1.32
		C13.93,11.4,15.35,11.4,16.86,11.4z M12.12,6.16c0,0.34,0,0.67,0,1c1.14,0,2.27,0,3.41,0c0-0.34,0-0.66,0-1
		C14.39,6.16,13.27,6.16,12.12,6.16z"/>
	<path class="st0" d="M5.3,12.5c0-0.74,0-1.46,0-2.2c0.07-0.01,0.13-0.01,0.18-0.01c0.73,0,1.45,0,2.18,0
		c0.43,0,0.73,0.22,0.86,0.62c0.1,0.31,0.11,0.63,0.02,0.95c-0.1,0.37-0.37,0.62-0.75,0.63C6.96,12.51,6.14,12.5,5.3,12.5z"/>
	<path class="st0" d="M5.29,8.99c0-0.62,0-1.22,0-1.84c0.08,0,0.16-0.01,0.24-0.01c0.68,0,1.36,0,2.04,0c0.41,0,0.65,0.18,0.7,0.57
		C8.3,7.99,8.28,8.28,8.23,8.56C8.18,8.82,7.98,8.98,7.7,8.99C6.9,9,6.11,8.99,5.29,8.99z"/>
	<path class="st0" d="M15.19,10.28c-0.91,0-1.81,0-2.7,0c0.04-0.72,0.69-1.29,1.47-1.28C14.7,9.01,15.18,9.5,15.19,10.28z"/>
</g>
</svg>
