<svg xmlns="http://www.w3.org/2000/svg" viewBox="0 0 270.62 39"><defs><style>.cls-1{fill:#240066;}.cls-2{fill:#00ffa9;}</style></defs><g id="Layer_2" data-name="Layer 2"><g id="Purple_logo" data-name="Purple logo"><path class="cls-1" d="M0,39V0H19.4a17.31,17.31,0,0,1,5.45.8,11,11,0,0,1,4,2.25,9.25,9.25,0,0,1,2.4,3.42,11.39,11.39,0,0,1,.8,4.28,9.26,9.26,0,0,1-1.25,4.87A9.13,9.13,0,0,1,27.3,19a10.58,10.58,0,0,1,4.75,3.47A9,9,0,0,1,33.8,28a10.1,10.1,0,0,1-3.45,8q-3.45,3-9.25,3ZM18.8,9.1H10v6.2h8.25q3.7,0,3.7-3.1A3.11,3.11,0,0,0,21.12,10,3.05,3.05,0,0,0,18.8,9.1Zm1.2,14H10V30H20A3.7,3.7,0,0,0,22.8,29a3.54,3.54,0,0,0,.9-2.55Q23.7,23.1,20,23.1Z"/><path class="cls-1" d="M38.73,0H57.78a17.49,17.49,0,0,1,6.4,1.1,12.08,12.08,0,0,1,4.6,3.07,13.13,13.13,0,0,1,2.7,4.58,16.69,16.69,0,0,1,.9,5.5,18.69,18.69,0,0,1-.63,4.47,13,13,0,0,1-2.42,4.86,12.25,12.25,0,0,1-4.65,3.62L73.13,39H61.18l-7.4-10.45h-5.1V39h-10Zm18.5,9.1H48.68V19.5h8.55A5.33,5.33,0,0,0,61.35,18a5.15,5.15,0,0,0,1.38-3.67,5.35,5.35,0,0,0-1.35-3.8A5.4,5.4,0,0,0,57.23,9.1Z"/><path class="cls-1" d="M77.53,39V0h30V9.7h-20v5.6h16.4v9.05H87.53v5h20V39Z"/><path class="cls-1" d="M123.08,39h-10V0h8.5L139,21.8V0h10V39h-8.45l-17.4-21.75Z"/><path class="cls-1" d="M155.49,39V0h18.1a22.07,22.07,0,0,1,6.55,1,15.55,15.55,0,0,1,5.93,3.45A16.25,16.25,0,0,1,190,9.83a21.15,21.15,0,0,1,1.68,5.37,28.79,28.79,0,0,1,.37,4.3,23.42,23.42,0,0,1-1.2,7.55,18.22,18.22,0,0,1-3.52,6.22,15.92,15.92,0,0,1-5.83,4.2,19.5,19.5,0,0,1-7.9,1.53ZM172.84,9.7h-7.35V29.35h7.35a11.74,11.74,0,0,0,3.23-.47A7.37,7.37,0,0,0,179,27.22a8.67,8.67,0,0,0,2.13-3.07,11.69,11.69,0,0,0,.82-4.65,10.33,10.33,0,0,0-2.37-7.12A8.52,8.52,0,0,0,172.84,9.7Z"/><path class="cls-1" d="M197,39V0h29.95V9.7H207v5.6h16.4v9.05H207v5h19.95V39Z"/><path class="cls-1" d="M232.52,0h19A17.49,17.49,0,0,1,258,1.1a12.16,12.16,0,0,1,4.6,3.07,13.13,13.13,0,0,1,2.7,4.58,16.69,16.69,0,0,1,.9,5.5,18.69,18.69,0,0,1-.63,4.47,13.12,13.12,0,0,1-2.42,4.86,12.25,12.25,0,0,1-4.65,3.62L266.92,39H255l-7.4-10.45h-5.1V39h-9.95ZM251,9.1h-8.55V19.5H251A5.33,5.33,0,0,0,255.14,18a5.15,5.15,0,0,0,1.38-3.67,5.35,5.35,0,0,0-1.35-3.8A5.41,5.41,0,0,0,251,9.1Z"/><path class="cls-2" d="M258,29.45a6.81,6.81,0,0,1,.62-2.7,5.89,5.89,0,0,1,2.2-2.52,6,6,0,0,1,3.48-1.08,6.84,6.84,0,0,1,2.7.63,6.41,6.41,0,0,1,3.6,5.67,6.84,6.84,0,0,1-.63,2.7,6,6,0,0,1-2.2,2.53,6.08,6.08,0,0,1-3.47,1.07,6.91,6.91,0,0,1-2.7-.62,6.36,6.36,0,0,1-3.6-5.68Z"/></g></g></svg>