<?xml version="1.0" encoding="utf-8"?>
<!-- Generator: Adobe Illustrator 24.0.3, SVG Export Plug-In . SVG Version: 6.00 Build 0)  -->
<svg version="1.1" id="Layer_1" xmlns="http://www.w3.org/2000/svg" xmlns:xlink="http://www.w3.org/1999/xlink" x="0px" y="0px"
	 viewBox="0 0 20 20" style="enable-background:new 0 0 20 20;" xml:space="preserve">
<style type="text/css">
	.st0{fill:#FFFFFF;}
</style>
<path class="st0" d="M10,19.99c-5.52,0-10-4.48-10-9.98c0-5.52,4.48-9.99,10-9.99S20,4.49,20,10S15.52,19.99,10,19.99L10,19.99z
	 M18.43,11.36c-0.29-0.09-2.64-0.79-5.32-0.37c1.12,3.06,1.57,5.56,1.66,6.08C16.69,15.79,18.05,13.74,18.43,11.36z M13.34,17.86
	c-0.13-0.75-0.62-3.36-1.82-6.47c-0.02,0.01-0.04,0.02-0.05,0.02c-4.82,1.68-6.55,5.02-6.7,5.33c1.45,1.12,3.27,1.8,5.24,1.8
	C11.18,18.54,12.31,18.3,13.34,17.86L13.34,17.86z M3.66,15.71c0.2-0.33,2.54-4.2,6.95-5.63c0.11-0.04,0.23-0.07,0.34-0.1
	c-0.21-0.48-0.45-0.97-0.7-1.45C5.98,9.81,1.84,9.75,1.46,9.75c0,0.09-0.01,0.17-0.01,0.26C1.46,12.2,2.29,14.2,3.66,15.71
	L3.66,15.71z M1.64,8.26c0.38,0.01,3.9,0.02,7.9-1.04C8.12,4.71,6.59,2.6,6.38,2.29C3.98,3.42,2.2,5.62,1.64,8.26z M8,1.71
	c0.23,0.31,1.79,2.42,3.19,4.99c3.04-1.14,4.32-2.86,4.48-3.08C14.16,2.29,12.17,1.48,10,1.48C9.31,1.48,8.64,1.57,8,1.71z
	 M16.61,4.61C16.43,4.86,15,6.69,11.84,7.98c0.2,0.41,0.39,0.82,0.57,1.23c0.06,0.15,0.12,0.3,0.19,0.44
	c2.84-0.36,5.66,0.22,5.95,0.27C18.52,7.92,17.8,6.07,16.61,4.61L16.61,4.61z"/>
</svg>
