<?xml version="1.0" encoding="utf-8"?>
<!-- Generator: Adobe Illustrator 24.0.3, SVG Export Plug-In . SVG Version: 6.00 Build 0)  -->
<svg version="1.1" id="Layer_1" xmlns="http://www.w3.org/2000/svg" xmlns:xlink="http://www.w3.org/1999/xlink" x="0px" y="0px"
	 viewBox="0 0 20 20" style="enable-background:new 0 0 20 20;" xml:space="preserve">
<style type="text/css">
	.st0{fill:#FFFFFF;}
</style>
<path class="st0" d="M18.9,0H1.1C0.49,0,0,0.49,0,1.1V18.9C0,19.51,0.49,20,1.1,20h9.58v-7.75H8.08V9.24h2.61V7.01
	c0-2.58,1.58-3.99,3.88-3.99c1.1,0,2.05,0.08,2.33,0.12v2.7l-1.6,0c-1.25,0-1.5,0.6-1.5,1.47v1.93h2.99l-0.39,3.02h-2.6V20h5.1
	c0.61,0,1.1-0.49,1.1-1.1V1.1C20,0.49,19.51,0,18.9,0z"/>
</svg>
