<?xml version="1.0" encoding="utf-8"?>
<!-- Generator: Adobe Illustrator 24.0.3, SVG Export Plug-In . SVG Version: 6.00 Build 0)  -->
<svg version="1.1" id="Layer_1" xmlns="http://www.w3.org/2000/svg" xmlns:xlink="http://www.w3.org/1999/xlink" x="0px" y="0px"
	 viewBox="0 0 20 20" style="enable-background:new 0 0 20 20;" xml:space="preserve">
<style type="text/css">
	.st0{fill:#3C5A99;}
	.st1{fill:#FFFFFF;}
</style>
<g>
	<path id="Blue_1_" class="st0" d="M18.9,20c0.61,0,1.1-0.49,1.1-1.1V1.1C20,0.49,19.51,0,18.9,0H1.1C0.49,0,0,0.49,0,1.1V18.9
		C0,19.51,0.49,20,1.1,20H18.9z"/>
	<path id="f" class="st1" d="M13.8,20v-7.75h2.6l0.39-3.02H13.8V7.31c0-0.87,0.24-1.47,1.5-1.47l1.6,0v-2.7
		c-0.28-0.04-1.23-0.12-2.33-0.12c-2.3,0-3.88,1.41-3.88,3.99v2.23H8.08v3.02h2.61V20H13.8z"/>
</g>
</svg>
