<?xml version="1.0" encoding="utf-8"?>
<!-- Generator: Adobe Illustrator 24.0.3, SVG Export Plug-In . SVG Version: 6.00 Build 0)  -->
<svg version="1.1" id="Layer_1" xmlns="http://www.w3.org/2000/svg" xmlns:xlink="http://www.w3.org/1999/xlink" x="0px" y="0px"
	 viewBox="0 0 20 20" style="enable-background:new 0 0 20 20;" xml:space="preserve">
<style type="text/css">
	.st0{fill:#FFFFFF;}
</style>
<path class="st0" d="M10,2.62c-2.01,0-2.26,0.01-3.04,0.04C6.17,2.7,5.63,2.82,5.16,3.01c-0.49,0.19-0.9,0.44-1.31,0.85
	C3.44,4.27,3.19,4.68,3,5.16C2.82,5.63,2.69,6.17,2.66,6.96C2.62,7.74,2.61,8,2.61,10s0.01,2.26,0.04,3.04
	C2.7,13.83,2.82,14.37,3,14.84c0.19,0.49,0.44,0.9,0.85,1.31c0.41,0.41,0.82,0.66,1.31,0.85c0.47,0.18,1.01,0.31,1.79,0.34
	c0.79,0.04,1.04,0.04,3.04,0.04c2.01,0,2.26-0.01,3.04-0.04c0.79-0.04,1.32-0.16,1.79-0.34c0.49-0.19,0.9-0.44,1.31-0.85
	c0.41-0.41,0.66-0.82,0.85-1.31c0.18-0.47,0.31-1.01,0.34-1.79c0.04-0.79,0.04-1.04,0.04-3.04s-0.01-2.26-0.04-3.04
	c-0.04-0.79-0.16-1.32-0.34-1.79c-0.19-0.49-0.44-0.9-0.85-1.31c-0.41-0.41-0.82-0.66-1.31-0.85c-0.47-0.18-1.01-0.31-1.79-0.34
	C12.25,2.63,12,2.62,10,2.62L10,2.62z M9.34,3.95c0.2,0,0.42,0,0.66,0c1.97,0,2.2,0.01,2.98,0.04c0.72,0.03,1.11,0.15,1.37,0.25
	c0.34,0.13,0.59,0.29,0.85,0.55c0.26,0.26,0.42,0.5,0.55,0.85c0.1,0.26,0.22,0.65,0.25,1.37c0.04,0.78,0.04,1.01,0.04,2.98
	s-0.01,2.2-0.04,2.98c-0.03,0.72-0.15,1.11-0.25,1.37c-0.13,0.34-0.29,0.59-0.55,0.85c-0.26,0.26-0.5,0.42-0.85,0.55
	c-0.26,0.1-0.65,0.22-1.37,0.25c-0.78,0.04-1.01,0.04-2.98,0.04c-1.97,0-2.21-0.01-2.98-0.04c-0.72-0.03-1.11-0.15-1.37-0.25
	C5.3,15.62,5.05,15.46,4.8,15.2c-0.26-0.26-0.42-0.5-0.55-0.85c-0.1-0.26-0.22-0.65-0.25-1.37C3.95,12.2,3.95,11.97,3.95,10
	s0.01-2.2,0.04-2.98C4.02,6.29,4.14,5.9,4.24,5.64C4.38,5.3,4.54,5.05,4.8,4.79c0.26-0.26,0.5-0.42,0.85-0.55
	C5.9,4.14,6.3,4.02,7.02,3.99C7.7,3.96,7.96,3.95,9.34,3.95L9.34,3.95z M13.94,5.17c-0.49,0-0.89,0.4-0.89,0.89
	c0,0.49,0.4,0.89,0.89,0.89s0.89-0.4,0.89-0.89S14.43,5.17,13.94,5.17L13.94,5.17z M10,6.21c-2.09,0-3.79,1.7-3.79,3.79
	s1.7,3.79,3.79,3.79c2.09,0,3.79-1.7,3.79-3.79S12.09,6.21,10,6.21L10,6.21z M10,7.54c1.36,0,2.46,1.1,2.46,2.46
	c0,1.36-1.1,2.46-2.46,2.46c-1.36,0-2.46-1.1-2.46-2.46C7.54,8.64,8.64,7.54,10,7.54z"/>
</svg>
