<?xml version="1.0" encoding="utf-8"?>
<!-- Generator: Adobe Illustrator 24.0.3, SVG Export Plug-In . SVG Version: 6.00 Build 0)  -->
<svg version="1.1" id="Layer_1" xmlns="http://www.w3.org/2000/svg" xmlns:xlink="http://www.w3.org/1999/xlink" x="0px" y="0px"
	 viewBox="0 0 20 20" style="enable-background:new 0 0 20 20;" xml:space="preserve">
<style type="text/css">
	.st0{fill:#006699;}
	.st1{fill:#FFFFFF;}
</style>
<path class="st0" d="M16.98,0H3.02C1.35,0,0,1.35,0,3.02v13.96C0,18.65,1.35,20,3.02,20h13.96c1.67,0,3.02-1.35,3.02-3.02V3.02
	C20,1.35,18.65,0,16.98,0z"/>
<path class="st1" d="M6.4,16.79V7.7H3.38v9.09H6.4z M4.89,6.45c1.05,0,1.71-0.7,1.71-1.57C6.58,3.99,5.94,3.31,4.91,3.31
	c-1.03,0-1.71,0.68-1.71,1.57c0,0.87,0.66,1.57,1.67,1.57H4.89L4.89,6.45z"/>
<path class="st1" d="M8.07,16.79h3.02v-5.08c0-0.27,0.02-0.54,0.1-0.74c0.22-0.54,0.72-1.1,1.55-1.1c1.09,0,1.53,0.83,1.53,2.06
	v4.86h3.02v-5.21c0-2.79-1.49-4.09-3.48-4.09c-1.63,0-2.35,0.91-2.74,1.53h0.02V7.7H8.07C8.11,8.55,8.07,16.79,8.07,16.79
	L8.07,16.79z"/>
</svg>
