<?xml version="1.0" encoding="utf-8"?>
<!-- Generator: Adobe Illustrator 24.0.3, SVG Export Plug-In . SVG Version: 6.00 Build 0)  -->
<svg version="1.1" id="Layer_1" xmlns="http://www.w3.org/2000/svg" xmlns:xlink="http://www.w3.org/1999/xlink" x="0px" y="0px"
	 viewBox="0 0 20 20" style="enable-background:new 0 0 20 20;" xml:space="preserve">
<style type="text/css">
	.st0{fill:#FFFFFF;}
</style>
<path class="st0" d="M16.98,0H3.02C1.35,0,0,1.35,0,3.02v13.96C0,18.65,1.35,20,3.02,20h13.96c1.67,0,3.02-1.35,3.02-3.02V3.02
	C20,1.35,18.65,0,16.98,0z M6.4,16.79H3.38V7.7H6.4V16.79z M4.89,6.45L4.89,6.45H4.87c-1.01,0-1.67-0.7-1.67-1.57
	c0-0.89,0.68-1.57,1.71-1.57c1.03,0,1.67,0.68,1.69,1.57C6.6,5.76,5.94,6.45,4.89,6.45z M17.29,16.79h-3.02v-4.86
	c0-1.22-0.44-2.06-1.53-2.06c-0.83,0-1.33,0.56-1.55,1.1c-0.08,0.19-0.1,0.47-0.1,0.74v5.08H8.07l0,0c0,0,0.04-8.24,0-9.09h3.02
	v1.29c0.4-0.62,1.12-1.5,2.72-1.5c1.99,0,3.48,1.3,3.48,4.09V16.79z"/>
</svg>
