<?xml version="1.0" encoding="utf-8"?>
<!-- Generator: Adobe Illustrator 24.0.3, SVG Export Plug-In . SVG Version: 6.00 Build 0)  -->
<svg version="1.1" id="Layer_1" xmlns="http://www.w3.org/2000/svg" xmlns:xlink="http://www.w3.org/1999/xlink" x="0px" y="0px"
	 viewBox="0 0 20 20" style="enable-background:new 0 0 20 20;" xml:space="preserve">
<style type="text/css">
	.st0{fill:#1DA1F2;}
</style>
<g id="layer1" transform="translate(-539.17946,-568.85777)">
	<path id="path3611" class="st0" d="M545.53,586.86c7.43,0,11.49-6.16,11.49-11.49c0-0.17,0-0.35-0.01-0.52
		c0.79-0.57,1.47-1.28,2.01-2.09c-0.72,0.32-1.5,0.54-2.32,0.64c0.83-0.5,1.47-1.29,1.78-2.23c-0.78,0.46-1.64,0.8-2.56,0.98
		c-0.74-0.79-1.79-1.28-2.95-1.28c-2.23,0-4.04,1.81-4.04,4.04c0,0.32,0.04,0.63,0.1,0.92c-3.36-0.17-6.33-1.78-8.33-4.22
		c-0.35,0.6-0.55,1.29-0.55,2.03c0,1.4,0.71,2.64,1.8,3.36c-0.66-0.02-1.29-0.2-1.83-0.51c0,0.02,0,0.03,0,0.05
		c0,1.96,1.39,3.59,3.24,3.96c-0.34,0.09-0.7,0.14-1.07,0.14c-0.26,0-0.51-0.03-0.76-0.07c0.51,1.6,2.01,2.77,3.77,2.81
		c-1.38,1.08-3.12,1.73-5.02,1.73c-0.33,0-0.65-0.02-0.96-0.06C541.12,586.19,543.25,586.86,545.53,586.86"/>
</g>
</svg>
