<?xml version="1.0" encoding="utf-8"?>
<!-- Generator: Adobe Illustrator 24.0.3, SVG Export Plug-In . SVG Version: 6.00 Build 0)  -->
<svg version="1.1" id="Layer_1" xmlns="http://www.w3.org/2000/svg" xmlns:xlink="http://www.w3.org/1999/xlink" x="0px" y="0px"
	 viewBox="0 0 20 20" style="enable-background:new 0 0 20 20;" xml:space="preserve">
<style type="text/css">
	.st0{fill:#25D366;}
	.st1{fill:#FFFFFF;}
	.st2{fill-rule:evenodd;clip-rule:evenodd;fill:#FFFFFF;}
</style>
<g>
	<path class="st0" d="M19.06,9.91c0,4.98-4.04,9.02-9.02,9.02c-1.71,0-3.57-0.36-5.04-1.15c-0.49-0.26-2.37,0.48-2.75,0.12
		c-0.6-0.56,0.39-2.31,0.19-3.13c-0.9-1.4-1.43-3.08-1.43-4.87c0-4.98,4.04-9.02,9.02-9.02S19.06,4.93,19.06,9.91z"/>
	<g id="whatsapp-whatsapp">
		<path class="st1" d="M0.05,20l1.41-5.14c-0.87-1.5-1.32-3.21-1.32-4.95C0.13,4.45,4.58,0,10.04,0c2.65,0,5.14,1.03,7.01,2.91
			c1.87,1.87,2.9,4.36,2.9,7.01c0,5.46-4.45,9.91-9.91,9.91c0,0,0,0,0,0h0c-1.66,0-3.29-0.42-4.74-1.21L0.05,20z M5.54,16.83
			l0.3,0.18c1.26,0.75,2.71,1.15,4.19,1.15h0c4.54,0,8.24-3.7,8.24-8.24c0-2.2-0.86-4.27-2.41-5.83c-1.56-1.56-3.62-2.41-5.82-2.42
			c-4.54,0-8.24,3.7-8.24,8.24c0,1.56,0.43,3.07,1.26,4.38l0.2,0.31l-0.83,3.04L5.54,16.83z"/>
		<path class="st2" d="M15.03,12.27c-0.06-0.1-0.23-0.17-0.47-0.29c-0.25-0.12-1.47-0.72-1.69-0.81c-0.23-0.08-0.39-0.12-0.56,0.12
			c-0.17,0.25-0.64,0.81-0.78,0.97c-0.14,0.17-0.29,0.19-0.54,0.06c-0.25-0.12-1.05-0.39-1.99-1.23c-0.74-0.66-1.23-1.47-1.38-1.72
			C7.47,9.14,7.6,9.01,7.73,8.89C7.84,8.78,7.98,8.6,8.1,8.45C8.22,8.31,8.26,8.2,8.35,8.04c0.08-0.17,0.04-0.31-0.02-0.43
			C8.26,7.48,7.77,6.26,7.56,5.77c-0.2-0.48-0.41-0.42-0.56-0.43C6.86,5.33,6.7,5.33,6.53,5.33c-0.16,0-0.43,0.06-0.66,0.31
			C5.64,5.89,5,6.49,5,7.71c0,1.22,0.89,2.4,1.01,2.56c0.12,0.17,1.75,2.67,4.23,3.74c0.59,0.26,1.05,0.41,1.41,0.52
			c0.59,0.19,1.13,0.16,1.56,0.1c0.48-0.07,1.47-0.6,1.67-1.18C15.09,12.87,15.09,12.38,15.03,12.27z"/>
	</g>
</g>
</svg>
